<svg width="206" height="206" viewBox="0 0 206 206" fill="none" xmlns="http://www.w3.org/2000/svg">
<circle cx="103" cy="103" r="99.5" fill="black" stroke="white" stroke-width="7"/>
<path d="M126.593 147.479L100.549 109.639L96.84 104.253L66.6184 60.3425H79.6184L104.059 95.853L107.768 101.24L139.594 147.479H126.593ZM144.968 143.783L112.164 96.1256L108.455 90.7363L84.9903 56.6461L83.0455 53.8206H54.2115L61.2436 64.0397L92.4434 109.372L96.1522 114.756L121.22 151.179L123.166 154.001H152L144.968 143.783Z" fill="white"/>
<path d="M96.8386 104.252L100.548 109.639L96.1508 114.756L62.4163 154.001H54.0975L92.442 109.372L96.8386 104.252Z" fill="white"/>
<path d="M148.526 53.8205L112.162 96.1255L107.765 101.24L104.057 95.853L108.453 90.7362L133.086 62.0648L140.207 53.8205H148.526Z" fill="white"/>
</svg>
