<svg width="206" height="206" viewBox="0 0 206 206" fill="none" xmlns="http://www.w3.org/2000/svg">
<circle cx="103" cy="103" r="99.5" fill="black" stroke="white" stroke-width="7"/>
<path d="M150.811 64.711C150.467 63.6977 150.056 63.431 149.415 63.1777C148.012 62.6577 145.636 63.4444 145.636 63.4444C145.636 63.4444 61.523 93.6844 56.7177 97.031C55.683 97.751 55.3364 98.1777 55.1644 98.671C54.3337 101.044 56.9217 102.098 56.9217 102.098L78.6017 109.164C78.6017 109.164 79.4097 109.284 79.6977 109.098C84.6297 105.978 129.319 77.7644 131.896 76.8177C132.303 76.6977 132.604 76.831 132.524 77.111C131.492 80.7377 92.6777 115.231 92.6777 115.231C92.6777 115.231 92.5297 115.418 92.4364 115.631L92.3857 115.604L90.363 137.111C90.363 137.111 89.515 143.698 96.103 137.111C100.751 132.458 105.248 128.564 107.499 126.684C114.954 131.831 122.976 137.524 126.439 140.498C128.178 141.991 129.632 142.231 130.83 142.191C134.116 142.071 135.034 138.458 135.034 138.458C135.034 138.458 150.362 76.7644 150.874 68.4977C150.924 67.6844 150.994 67.1777 150.999 66.6177C151.008 65.8444 150.936 65.071 150.811 64.711Z" fill="white"/>
</svg>
