<svg width="206" height="206" viewBox="0 0 206 206" fill="none" xmlns="http://www.w3.org/2000/svg">
<circle cx="103" cy="103" r="99.5" fill="black" stroke="white" stroke-width="7"/>
<path d="M52 71.0777V103.434L67.5773 96.7649V79.373L85.3699 88.8702L101.748 81.1876L66.564 63.2065L52 71.0777Z" fill="white"/>
<path d="M77.2852 57.9512L94.6535 66.8357L102.949 62.8059L110.844 66.8357L129.225 59.3652L102.949 44L77.2852 57.9512Z" fill="white"/>
<path d="M153.5 71.0778L139.949 64.22L121.968 72.4917L134.081 79.5852L52 116.372V136.592L65.15 143.049L82.7304 134.565L71.2065 128.085L153.5 90.4964V71.0778Z" fill="white"/>
<path d="M153.501 135.578V103.033L138.324 109.491V127.684L120.131 117.974L103.965 125.869L138.324 144.274L153.501 135.578Z" fill="white"/>
<path d="M102.622 145.029L93.7139 141.046L77.4531 148.776L102.622 162.256L129.37 148.776L113.321 141.046L102.622 145.029Z" fill="white"/>
</svg>
